<mxfile host="app.diagrams.net" agent="Mozilla/5.0 (Windows NT 10.0; Win64; x64; rv:109.0) Gecko/20100101 Firefox/115.0" version="24.8.0">
  <diagram name="Page-1" id="GznCGBg9nMhQKt6_Tk-l">
    <mxGraphModel dx="1247" dy="680" grid="1" gridSize="10" guides="1" tooltips="1" connect="1" arrows="1" fold="1" page="1" pageScale="1" pageWidth="827" pageHeight="1169" math="0" shadow="0">
      <root>
        <mxCell id="0" />
        <mxCell id="1" parent="0" />
        <mxCell id="rkTWR5J4ubElgMGjkMiq-5" style="edgeStyle=orthogonalEdgeStyle;rounded=0;orthogonalLoop=1;jettySize=auto;html=1;exitX=0.5;exitY=1;exitDx=0;exitDy=0;entryX=0.5;entryY=0;entryDx=0;entryDy=0;curved=1;" edge="1" parent="1" source="rkTWR5J4ubElgMGjkMiq-1" target="rkTWR5J4ubElgMGjkMiq-3">
          <mxGeometry relative="1" as="geometry">
            <mxPoint x="369" y="420" as="sourcePoint" />
          </mxGeometry>
        </mxCell>
        <mxCell id="rkTWR5J4ubElgMGjkMiq-1" value="Superviseur" style="rounded=1;whiteSpace=wrap;html=1;fillColor=#d5e8d4;strokeColor=#82b366;" vertex="1" parent="1">
          <mxGeometry x="339" y="190" width="120" height="60" as="geometry" />
        </mxCell>
        <mxCell id="rkTWR5J4ubElgMGjkMiq-8" value="" style="edgeStyle=orthogonalEdgeStyle;rounded=0;orthogonalLoop=1;jettySize=auto;html=1;" edge="1" parent="1" source="rkTWR5J4ubElgMGjkMiq-2" target="rkTWR5J4ubElgMGjkMiq-1">
          <mxGeometry relative="1" as="geometry" />
        </mxCell>
        <mxCell id="rkTWR5J4ubElgMGjkMiq-9" value="Mail reçu" style="edgeLabel;html=1;align=center;verticalAlign=middle;resizable=0;points=[];" vertex="1" connectable="0" parent="rkTWR5J4ubElgMGjkMiq-8">
          <mxGeometry x="0.1111" relative="1" as="geometry">
            <mxPoint as="offset" />
          </mxGeometry>
        </mxCell>
        <mxCell id="rkTWR5J4ubElgMGjkMiq-2" value="&lt;div&gt;Programme python&lt;/div&gt;&lt;div&gt;&lt;br&gt;&lt;/div&gt;" style="shape=umlActor;verticalLabelPosition=bottom;verticalAlign=top;html=1;outlineConnect=0;" vertex="1" parent="1">
          <mxGeometry x="384" y="40" width="30" height="60" as="geometry" />
        </mxCell>
        <mxCell id="rkTWR5J4ubElgMGjkMiq-6" style="edgeStyle=orthogonalEdgeStyle;rounded=0;orthogonalLoop=1;jettySize=auto;html=1;exitX=1;exitY=0.5;exitDx=0;exitDy=0;curved=1;entryX=0.5;entryY=0;entryDx=0;entryDy=0;" edge="1" parent="1" source="rkTWR5J4ubElgMGjkMiq-3" target="rkTWR5J4ubElgMGjkMiq-22">
          <mxGeometry relative="1" as="geometry">
            <mxPoint x="620" y="620" as="targetPoint" />
          </mxGeometry>
        </mxCell>
        <mxCell id="rkTWR5J4ubElgMGjkMiq-11" style="edgeStyle=orthogonalEdgeStyle;rounded=0;orthogonalLoop=1;jettySize=auto;html=1;exitX=0.25;exitY=1;exitDx=0;exitDy=0;entryX=0.5;entryY=0;entryDx=0;entryDy=0;curved=1;" edge="1" parent="1" source="rkTWR5J4ubElgMGjkMiq-3" target="rkTWR5J4ubElgMGjkMiq-10">
          <mxGeometry relative="1" as="geometry" />
        </mxCell>
        <mxCell id="rkTWR5J4ubElgMGjkMiq-15" style="edgeStyle=orthogonalEdgeStyle;rounded=0;orthogonalLoop=1;jettySize=auto;html=1;exitX=0.75;exitY=1;exitDx=0;exitDy=0;curved=1;entryX=0.5;entryY=0;entryDx=0;entryDy=0;" edge="1" parent="1" source="rkTWR5J4ubElgMGjkMiq-3" target="rkTWR5J4ubElgMGjkMiq-16">
          <mxGeometry relative="1" as="geometry">
            <mxPoint x="290" y="650" as="targetPoint" />
          </mxGeometry>
        </mxCell>
        <mxCell id="rkTWR5J4ubElgMGjkMiq-3" value="&lt;div&gt;Analyse de mail&lt;/div&gt;" style="rounded=1;whiteSpace=wrap;html=1;fillColor=#dae8fc;strokeColor=#6c8ebf;" vertex="1" parent="1">
          <mxGeometry x="200" y="480" width="120" height="60" as="geometry" />
        </mxCell>
        <mxCell id="rkTWR5J4ubElgMGjkMiq-4" value="&lt;div&gt;Opérations sur les mails&lt;/div&gt;" style="rounded=1;whiteSpace=wrap;html=1;fillColor=#dae8fc;strokeColor=#6c8ebf;" vertex="1" parent="1">
          <mxGeometry x="600" y="700" width="120" height="60" as="geometry" />
        </mxCell>
        <mxCell id="rkTWR5J4ubElgMGjkMiq-13" style="edgeStyle=orthogonalEdgeStyle;rounded=0;orthogonalLoop=1;jettySize=auto;html=1;exitX=0.25;exitY=0;exitDx=0;exitDy=0;entryX=0;entryY=0.5;entryDx=0;entryDy=0;curved=1;dashed=1;dashPattern=8 8;" edge="1" parent="1" source="rkTWR5J4ubElgMGjkMiq-10" target="rkTWR5J4ubElgMGjkMiq-3">
          <mxGeometry relative="1" as="geometry" />
        </mxCell>
        <mxCell id="rkTWR5J4ubElgMGjkMiq-14" value="Est spam ou non" style="edgeLabel;html=1;align=center;verticalAlign=middle;resizable=0;points=[];" vertex="1" connectable="0" parent="rkTWR5J4ubElgMGjkMiq-13">
          <mxGeometry x="0.3529" y="-11" relative="1" as="geometry">
            <mxPoint x="-25" y="19" as="offset" />
          </mxGeometry>
        </mxCell>
        <mxCell id="rkTWR5J4ubElgMGjkMiq-10" value="&lt;div&gt;Spam&lt;/div&gt;" style="rounded=1;whiteSpace=wrap;html=1;fillColor=#EFF4FC;strokeColor=#6c8ebf;" vertex="1" parent="1">
          <mxGeometry x="80" y="590" width="120" height="60" as="geometry" />
        </mxCell>
        <mxCell id="rkTWR5J4ubElgMGjkMiq-17" style="edgeStyle=orthogonalEdgeStyle;rounded=0;orthogonalLoop=1;jettySize=auto;html=1;exitX=0.25;exitY=0;exitDx=0;exitDy=0;entryX=0.5;entryY=1;entryDx=0;entryDy=0;curved=1;dashed=1;dashPattern=8 8;" edge="1" parent="1" source="rkTWR5J4ubElgMGjkMiq-19" target="rkTWR5J4ubElgMGjkMiq-3">
          <mxGeometry relative="1" as="geometry" />
        </mxCell>
        <mxCell id="rkTWR5J4ubElgMGjkMiq-18" value="Theme" style="edgeLabel;html=1;align=center;verticalAlign=middle;resizable=0;points=[];" vertex="1" connectable="0" parent="rkTWR5J4ubElgMGjkMiq-17">
          <mxGeometry x="-0.05" relative="1" as="geometry">
            <mxPoint as="offset" />
          </mxGeometry>
        </mxCell>
        <mxCell id="rkTWR5J4ubElgMGjkMiq-20" style="edgeStyle=orthogonalEdgeStyle;rounded=0;orthogonalLoop=1;jettySize=auto;html=1;exitX=0.5;exitY=1;exitDx=0;exitDy=0;entryX=0.5;entryY=0;entryDx=0;entryDy=0;curved=1;" edge="1" parent="1" source="rkTWR5J4ubElgMGjkMiq-16" target="rkTWR5J4ubElgMGjkMiq-19">
          <mxGeometry relative="1" as="geometry" />
        </mxCell>
        <mxCell id="rkTWR5J4ubElgMGjkMiq-16" value="Thème" style="rounded=1;whiteSpace=wrap;html=1;fillColor=#EFF4FC;" vertex="1" parent="1">
          <mxGeometry x="270" y="620" width="120" height="60" as="geometry" />
        </mxCell>
        <mxCell id="rkTWR5J4ubElgMGjkMiq-19" value="Thème similaire ?" style="rounded=1;whiteSpace=wrap;html=1;fillColor=#EFF4FC;" vertex="1" parent="1">
          <mxGeometry x="190" y="730" width="120" height="60" as="geometry" />
        </mxCell>
        <mxCell id="rkTWR5J4ubElgMGjkMiq-21" value="&lt;h2&gt;&amp;nbsp;Opérations&lt;/h2&gt;&lt;div&gt;Suppression de mail si spam, classification dans la base de donnée&lt;/div&gt;&lt;div&gt;&lt;font color=&quot;#ff0000&quot;&gt;&lt;b&gt;&lt;u&gt;COTE SERVEUR&lt;/u&gt;&lt;/b&gt;&lt;/font&gt;&lt;br&gt;&lt;/div&gt;" style="text;html=1;whiteSpace=wrap;overflow=hidden;rounded=0;" vertex="1" parent="1">
          <mxGeometry x="339" y="920" width="180" height="120" as="geometry" />
        </mxCell>
        <mxCell id="rkTWR5J4ubElgMGjkMiq-22" value="FIN" style="rhombus;whiteSpace=wrap;html=1;fillColor=#f8cecc;strokeColor=#b85450;" vertex="1" parent="1">
          <mxGeometry x="423" y="880" width="80" height="80" as="geometry" />
        </mxCell>
        <mxCell id="rkTWR5J4ubElgMGjkMiq-23" value="&lt;h2&gt;Thème&lt;/h2&gt;&lt;p&gt;Si un thème similaire est découvert parmi la liste, l&#39;outil remplace le thème analysé par le thème déjà existant&lt;br&gt;&lt;/p&gt;" style="text;html=1;whiteSpace=wrap;overflow=hidden;rounded=0;" vertex="1" parent="1">
          <mxGeometry x="110" y="740" width="180" height="120" as="geometry" />
        </mxCell>
      </root>
    </mxGraphModel>
  </diagram>
</mxfile>
